<?xml version="1.0" encoding="utf-8"?>
<!-- Generator: Adobe Illustrator 27.2.0, SVG Export Plug-In . SVG Version: 6.00 Build 0)  -->
<svg version="1.1" id="Слой_1" xmlns="http://www.w3.org/2000/svg" xmlns:xlink="http://www.w3.org/1999/xlink" x="0px" y="0px"
	 viewBox="0 0 399.48 277.68" style="enable-background:new 0 0 399.48 277.68;" xml:space="preserve">
<path d="M392.77,33.07c0,70.51,0,141.01,0,211.52c-0.17,0.33-0.4,0.65-0.49,1.01c-4.93,19.14-16.65,28.25-36.37,28.25
	c-84.81,0-169.63,0-254.44,0c-19.61,0-39.22,0.15-58.83-0.06c-13.01-0.14-23.06-6-29.47-17.36c-2.04-3.62-2.96-7.87-4.4-11.84
	c0-70.51,0-141.01,0-211.52c0.16-0.33,0.37-0.65,0.46-1C14.57,12.54,25.91,3.82,46,3.82c81.57,0,163.14,0,244.71,0
	c22.74,0,45.47-0.16,68.2,0.06c14.16,0.14,24.47,6.96,30.69,19.65C391.07,26.51,391.74,29.88,392.77,33.07z M353.43,27.44
	c-0.18-0.27-0.37-0.54-0.55-0.8c-101.44,0-202.88,0-304.32,0c0.46,1.44,1.45,2.03,2.24,2.82c46.43,46.54,92.84,93.1,139.25,139.65
	c7.23,7.25,14.21,7.26,21.42,0.03c33.36-33.45,66.69-66.93,100.09-100.34C325.44,54.93,339.47,41.22,353.43,27.44z M47.84,250.99
	c102.27,0,203.71,0,305.89,0c-32.49-32.19-64.43-63.85-96.54-95.67c-0.73,0.69-1.72,1.6-2.67,2.56
	c-9.36,9.38-18.67,18.81-28.07,28.15c-14.73,14.65-36.61,14.64-51.32,0c-5.67-5.64-11.28-11.34-16.94-17.01
	c-4.66-4.67-9.33-9.32-13.79-13.77C112.25,187.13,80.32,218.79,47.84,250.99z M31.43,234.05c31.88-31.58,64.07-63.45,96.31-95.38
	C95.55,106.77,63.41,74.9,31.43,43.19C31.43,106.77,31.43,170.83,31.43,234.05z M370.05,234.26c0-63.4,0-127.49,0-190.77
	c-31.86,31.56-64.02,63.41-96.26,95.34C306.02,170.78,338.17,202.65,370.05,234.26z"/>
</svg>
