<?xml version="1.0" encoding="utf-8"?>
<!-- Generator: Adobe Illustrator 27.2.0, SVG Export Plug-In . SVG Version: 6.00 Build 0)  -->
<svg version="1.1" id="Слой_1" xmlns="http://www.w3.org/2000/svg" xmlns:xlink="http://www.w3.org/1999/xlink" x="0px" y="0px"
	 viewBox="0 0 113.39 113.39" style="enable-background:new 0 0 113.39 113.39;" xml:space="preserve">
<style type="text/css">
	.st0{display:none;fill:#E86020;}
	.st1{display:none;}
	.st2{display:inline;fill:none;stroke:#E86020;stroke-width:2;stroke-miterlimit:10;}
	.st3{display:inline;fill:#E86020;stroke:#E86020;stroke-width:2;stroke-miterlimit:10;}
	.st4{display:inline;fill:#FFFFFF;stroke:#E86020;stroke-width:2;stroke-miterlimit:10;}
	.st5{display:inline;fill:none;stroke:#E86020;stroke-width:2;stroke-linecap:round;stroke-linejoin:round;stroke-miterlimit:10;}
	.st6{fill:#E86020;}
	.st7{fill:#FFFFFF;}
	.st8{fill:none;stroke:#E86020;stroke-width:2;stroke-linecap:round;stroke-miterlimit:10;}
</style>
<path class="st0" d="M62.24,86.75c-2.12,0-4.24,0-6.35,0c0.03-0.41-0.36-0.38-0.58-0.51c-1.49-0.91-2.39-2.2-2.58-3.96
	c0.15-0.12,0.13-0.24,0-0.36c0-0.7,0-1.41,0-2.11c0.01-0.01,0.04-0.03,0.04-0.04c-0.01-0.03-0.03-0.06-0.04-0.09
	c-0.3-0.85-0.88-1.43-1.71-1.72c-0.89-0.31-1.76-0.88-2.77-0.5c-0.67,0.25-1.14,0.79-1.6,1.3c-0.86,0.95-1.85,1.57-3.15,1.78
	c-1.32,0.22-2.46-0.07-3.51-0.82c-1.02-0.73-1.8-1.73-2.71-2.58c-0.89-0.83-1.6-1.78-1.8-3c-0.17-1-0.12-2.01,0.34-2.97
	c0.46-0.95,1.19-1.67,1.93-2.36c0.66-0.61,1.07-1.27,0.83-2.2c-0.35-1.38-0.7-2.74-2.24-3.31c-0.04-0.06-0.08-0.07-0.12-0.01
	c-0.7,0-1.41,0-2.11,0c-0.12-0.12-0.24-0.14-0.36,0c-0.77-0.02-1.48-0.28-2.12-0.69c-1.33-0.84-2.22-2.03-2.33-3.62
	c-0.1-1.36,0.01-2.74-0.03-4.11c-0.02-0.95,0.2-1.81,0.71-2.6c0.89-1.37,2.08-2.22,3.76-2.26c0.13,0.02,0.27,0.04,0.37-0.08
	c0.7,0,1.41,0,2.11,0c0.04,0.06,0.09,0.05,0.12-0.01c0.39-0.08,0.69-0.32,0.96-0.58c0.78-0.76,1.05-1.76,1.28-2.79
	c0.2-0.87-0.12-1.5-0.76-2.06c-0.34-0.29-0.63-0.64-0.95-0.96c-1.74-1.72-2.01-4.32-0.6-6.33c0.7-1,1.67-1.74,2.5-2.62
	c1.26-1.35,2.71-2.18,4.67-1.88c1.27,0.19,2.29,0.75,3.14,1.68c0.83,0.92,1.65,1.93,3.12,1.39c1.22-0.44,2.55-0.77,3.02-2.23
	c0.01-0.01,0.04-0.03,0.04-0.03c-0.01-0.03-0.02-0.06-0.03-0.09c0-0.7,0-1.41,0-2.11c0.12-0.12,0.14-0.24,0-0.36
	c-0.12-0.25,0.07-0.45,0.12-0.66c0.41-1.87,1.99-3.45,3.91-3.71c1.25-0.17,2.49-0.02,3.73-0.11c0.63-0.05,1.26,0.03,1.85,0.16
	c1.96,0.44,3.74,2.34,3.67,4.54c0.03,0.05,0.06,0.09,0.08,0.14c0,0.7,0,1.41,0,2.11c-0.01,0.01-0.04,0.03-0.04,0.04
	c0.01,0.03,0.03,0.06,0.04,0.09c0,0.22,0.09,0.41,0.2,0.59c0.53,0.9,1.47,1.17,2.35,1.52c1.12,0.45,2.09,0.33,2.9-0.65
	c0.33-0.41,0.73-0.76,1.12-1.12c0.9-0.84,2-1.28,3.21-1.26c1.39,0.02,2.65,0.47,3.64,1.53c0.79,0.84,1.61,1.66,2.45,2.45
	c1.47,1.38,1.78,3.76,0.93,5.54c-0.52,1.08-1.41,1.83-2.22,2.66c-0.37,0.38-0.58,0.79-0.55,1.34c0.06,1.19,0.55,2.21,1.23,3.14
	c0.26,0.35,0.65,0.61,1.12,0.64c0.04,0.06,0.08,0.07,0.12,0.01c0.7,0,1.41,0,2.11,0c0.06,0.09,0.15,0.1,0.25,0.08
	c1.37,0.04,2.45,0.62,3.35,1.64c0.57,0.64,0.86,1.4,1.23,2.13c0,1.88,0,3.77,0,5.65c-0.09,0.02-0.1,0.09-0.12,0.16
	c-0.26,0.92-0.75,1.72-1.43,2.35c-0.84,0.78-1.87,1.26-3.04,1.35c-0.08-0.12-0.16-0.11-0.24,0c-0.7,0-1.41,0-2.11,0
	c-0.04-0.06-0.09-0.05-0.12,0.01c-0.23,0.07-0.46,0.14-0.68,0.27c-0.86,0.53-1.09,1.44-1.43,2.28c-0.45,1.11-0.35,2.08,0.65,2.9
	c0.61,0.51,1.16,1.12,1.58,1.8c0.61,0.97,0.84,2.02,0.73,3.19c-0.1,1-0.43,1.89-1.1,2.58c-1.04,1.08-2.04,2.21-3.24,3.13
	c-1.51,1.16-3.21,1.59-5.07,0.7c-1.09-0.52-1.81-1.43-2.64-2.23c-0.25-0.24-0.5-0.44-0.88-0.5c-1.39-0.23-2.52,0.36-3.6,1.08
	c-0.37,0.25-0.64,0.67-0.68,1.16c-0.01,0.01-0.04,0.03-0.04,0.03c0.01,0.03,0.02,0.06,0.03,0.09c0,0.7,0,1.41,0,2.11
	c-0.09,0.06-0.1,0.15-0.08,0.25c-0.03,1.37-0.65,2.43-1.64,3.36C63.74,86.13,62.95,86.35,62.24,86.75z M59.29,43.56
	c-7.24-0.2-12.74,5.97-13.04,12.25c-0.4,8.19,6.07,13.7,12.38,13.98c4.15,0.18,7.71-1.29,10.51-4.35c2.55-2.79,3.62-6.16,3.35-9.94
	C72.06,49.49,66.75,43.35,59.29,43.56z"/>
<g class="st1">
	<path class="st2" d="M27.25,38.34l8.18,3.9c0,0-1.64,13.72-7.68,21.65l-8.06-2.39L27.25,38.34z"/>
	<path class="st2" d="M58.71,76.06c-1.85,2.6-5.62,0.42-5.62,0.42l-24.48-13.8"/>
	<path class="st2" d="M52.14,70.51l5.74,4.91c1.2,1,2.25,1.69,3.52,1.91c1.63,0.29,4.47-1.56,2.22-4.84"/>
	<path class="st2" d="M52.93,63.34l11.92,10.2c0.64,0.55,1.39,0.99,2.21,1.2c0.94,0.24,2.06,0.18,3.04-0.72
		c1.97-1.82-0.95-4.77-0.95-4.77"/>
	<path class="st2" d="M57.23,59.05l11.92,10.2c0.64,0.55,1.39,0.99,2.21,1.2c0.94,0.24,2.12,0.24,3.04-0.72
		c0.92-0.97,0.92-1.98,0.69-2.76c-0.19-0.65-0.6-1.23-1.11-1.68L57.23,50.25c0,0-1.37-1.13-2.82-0.55s-1.74,0.42-2.08,1.72
		s-2.9,4.11-5.2,4.2s-3.15-0.92-3.1-2.52c0.04-1.59,1.68-2.73,2.18-3.86c0.5-1.13,0.21-3.27,1.8-4.78l-12.59-0.88"/>
	<path class="st3" d="M78.6,39.03l-6.42,4.55c0,0,1.57,11.35,9,19.76l7.74-3.49L78.6,39.03z"/>
	<path class="st2" d="M72.18,43.58l-6.29,0.48c0,0-4.26-3.33-6.73-3.46c-2.33-0.13-5.66-1.57-11.14,3.86"/>
	<line class="st2" x1="74.11" y1="65.39" x2="79.64" y2="61.46"/>
	<path class="st4" d="M43.8,75.07l-1.07-0.67c-0.93-0.59-1.21-1.82-0.63-2.75l3.11-4.94c0.59-0.93,1.82-1.21,2.75-0.63l1.07,0.67
		c0.93,0.59,1.21,1.82,0.63,2.75l-3.11,4.94C45.96,75.38,44.73,75.66,43.8,75.07z"/>
	<path class="st4" d="M38.31,72.65l-1.07-0.67c-0.93-0.59-1.21-1.82-0.63-2.75l3.11-4.94c0.59-0.93,1.82-1.21,2.75-0.63l1.07,0.67
		c0.93,0.59,1.21,1.82,0.63,2.75l-3.11,4.94C40.47,72.95,39.24,73.23,38.31,72.65z"/>
	<path class="st4" d="M34.19,68.46l-1.07-0.67c-0.93-0.59-1.21-1.82-0.63-2.75l1.42-2.26c0.59-0.93,1.82-1.21,2.75-0.63l1.07,0.67
		c0.93,0.59,1.21,1.82,0.63,2.75l-1.42,2.26C36.35,68.76,35.12,69.04,34.19,68.46z"/>
	<path class="st4" d="M48.88,77.17l-1.07-0.67c-0.93-0.59-1.21-1.82-0.63-2.75l2.12-3.37c0.59-0.93,1.82-1.21,2.75-0.63l1.07,0.67
		c0.93,0.59,1.21,1.82,0.63,2.75l-2.12,3.37C51.04,77.47,49.81,77.75,48.88,77.17z"/>
</g>
<g class="st1">
	<polygon class="st5" points="21.75,40.82 21.75,71.37 52.84,88.02 83.91,71.49 83.91,40.82 52.84,25.37 	"/>
	<polyline class="st5" points="83.91,40.82 52.83,56.69 52.83,87.71 	"/>
	<line class="st5" x1="21.75" y1="40.82" x2="52.83" y2="56.69"/>
	<polyline class="st5" points="67.46,32.64 36.68,48.45 36.68,62.14 	"/>
</g>
<g>
	<path class="st6" d="M55.58,31.53l-19.5,11.45c-0.67,0.4-1.09,1.12-1.09,1.9v23.53c0,0.78,0.41,1.5,1.08,1.89l19.5,11.55
		c0.69,0.41,1.55,0.41,2.24,0l19.5-11.55c0.67-0.4,1.08-1.12,1.08-1.89V44.88c0-0.78-0.41-1.5-1.09-1.9l-19.5-11.45
		C57.12,31.13,56.27,31.13,55.58,31.53z"/>
	<circle class="st7" cx="56.69" cy="56.7" r="18.22"/>
	<g>
		<line class="st8" x1="55.64" y1="43.75" x2="55.64" y2="59.17"/>
		<line class="st8" x1="65.93" y1="59.17" x2="56.15" y2="59.17"/>
	</g>
</g>
</svg>
