<?xml version="1.0" encoding="utf-8"?>
<!-- Generator: Adobe Illustrator 27.2.0, SVG Export Plug-In . SVG Version: 6.00 Build 0)  -->
<svg version="1.1" id="Слой_1" xmlns="http://www.w3.org/2000/svg" xmlns:xlink="http://www.w3.org/1999/xlink" x="0px" y="0px"
	 viewBox="0 0 754.84 868.61" style="enable-background:new 0 0 754.84 868.61;" xml:space="preserve">
<g>
	<path d="M378.75,605.53c-31.9,30.67-63.38,60.91-94.85,91.17c-50.94,48.97-101.91,97.91-152.76,146.96
		c-11.03,10.63-23.28,18.66-38.56,21.72c-36.45,7.31-79.61-18.8-79.6-64.25c0.08-244.49,0.08-488.98,0-733.47
		C12.95,28.27,44.57,3.56,77.36,1.93c1.5-0.07,3-0.05,4.5-0.05c197.99,0,395.99-0.09,593.98,0.1c28.94,0.03,50.89,12.77,63.65,39.45
		c4.25,8.88,5.2,18.5,5.2,28.26c-0.02,158.99-0.02,317.99-0.02,476.98c0,84.5,0.03,168.99-0.02,253.49
		c-0.02,31.89-20.2,57.79-50.91,64.18c-24.81,5.17-46.76-1.06-65.27-18.89c-69.38-66.82-138.84-133.55-208.28-200.31
		c-12.85-12.36-25.71-24.71-38.57-37.07C380.8,607.3,379.92,606.57,378.75,605.53z M378.86,504.11
		c97.49,93.53,194.54,186.64,292.13,280.27c0-237.09,0-473.11,0-709.03c-195.1,0-389.69,0-584.47,0c0,236.28,0,472.19,0,709.23
		C184.25,690.82,281.24,597.77,378.86,504.11z"/>
</g>
</svg>
