<?xml version="1.0"?>
<svg width="379.12" height="360.8" xmlns="http://www.w3.org/2000/svg" xmlns:svg="http://www.w3.org/2000/svg">

 <g class="layer">
  <title>Layer 1</title>
  <path d="m371.12,64.59c-2.34,9.29 -4.73,18.57 -7.01,27.87c-4.88,19.92 -9.02,40.06 -14.76,59.72c-5.63,19.28 -19.86,29.82 -39.57,32.06c-37.54,4.27 -75.14,7.99 -112.72,11.91c-19.02,1.99 -38.03,4.1 -57.09,5.74c-4.56,0.39 -6.29,2.53 -7.83,6.3c-4.44,10.78 -1.58,21.94 7.68,28.43c4.22,2.95 9.04,3.62 14.07,3.62c52.01,-0.02 104.03,-0.02 156.04,0c1.75,0 3.53,0.09 5.24,0.4c4.22,0.76 6.86,3.99 6.82,8.11c-0.04,4.05 -2.86,7.36 -6.98,8.04c-1.26,0.21 -2.57,0.19 -3.86,0.19c-52.6,0.01 -105.2,0.03 -157.8,0c-29.67,-0.01 -48.48,-28.7 -36.48,-55.94c2.32,-5.27 2.62,-9.76 0.76,-15.29c-16.86,-50.09 -33.4,-100.29 -50.05,-150.45c-3.8,-11.46 -11.05,-16.7 -23.09,-16.73c-8.1,-0.02 -16.2,0.1 -24.3,-0.04c-7.06,-0.12 -11.05,-4.94 -9.21,-10.82c1.01,-3.23 3.29,-5.6 6.52,-5.59c12.65,0.06 25.48,-0.72 37.88,1.19c14.02,2.14 22.95,11.95 27.66,25.3c2.14,6.08 4.23,12.19 6.01,18.38c0.81,2.82 2.03,3.8 5.04,3.83c43.91,0.51 87.82,1.17 131.72,1.79c44.85,0.64 89.69,1.3 134.54,1.88c4.76,0.06 8.32,1.81 10.77,5.87c0,1.41 0,2.82 0,4.23zm-275.1,2.88c0.27,1.16 0.4,1.97 0.65,2.73c12.36,37.51 24.74,75.01 37.07,112.53c0.66,2 1.52,2.71 3.74,2.47c14.7,-1.59 29.42,-3 44.12,-4.53c42.02,-4.36 84.03,-8.77 126.04,-13.13c14.31,-1.49 23.43,-9.31 26.87,-23.32c4.27,-17.42 8.47,-34.85 12.7,-52.28c1.65,-6.79 3.29,-13.59 5.02,-20.71c-85.55,-1.25 -170.64,-2.5 -256.21,-3.76z" fill="#ffffff" id="svg_1"/>
  <path d="m125.44,352.78c-20.78,-0.02 -37.59,-16.87 -37.56,-37.64c0.03,-20.67 17.04,-37.68 37.64,-37.65c20.55,0.03 37.7,17.22 37.65,37.73c-0.05,20.65 -17.05,37.58 -37.73,37.56zm0.2,-16.78c11.47,-0.1 20.79,-9.5 20.74,-20.9c-0.05,-11.4 -9.49,-20.81 -20.88,-20.82c-11.57,-0.01 -20.97,9.53 -20.82,21.15c0.13,11.53 9.45,20.68 20.96,20.57z" fill="#ffffff" id="svg_2"/>
  <path d="m322.07,315.3c-0.11,20.85 -16.89,37.53 -37.71,37.48c-20.78,-0.05 -37.55,-16.93 -37.47,-37.71c0.08,-20.7 17.12,-37.68 37.7,-37.57c20.69,0.1 37.59,17.15 37.48,37.8zm-37.97,20.69c11.57,0.23 21.17,-9.1 21.31,-20.71c0.13,-11.24 -9.37,-20.88 -20.73,-21.01c-11.36,-0.13 -20.78,9.06 -21.12,20.6c-0.33,11.26 9.04,20.89 20.54,21.12z" fill="#ffffff" id="svg_3"/>
 </g>
</svg>