<?xml version="1.0" encoding="utf-8"?>
<!-- Generator: Adobe Illustrator 27.2.0, SVG Export Plug-In . SVG Version: 6.00 Build 0)  -->
<svg version="1.1" id="Слой_1" xmlns="http://www.w3.org/2000/svg" xmlns:xlink="http://www.w3.org/1999/xlink" x="0px" y="0px"
	 viewBox="0 0 350.71 326.71" style="enable-background:new 0 0 350.71 326.71;" xml:space="preserve">
<path d="M250.64,322.98c-6.67-1.45-13.59-2.21-19.98-4.49c-18.39-6.55-36.89-12.97-54.73-20.84c-20.41-9-38.01-22.68-54.77-37.3
	c-26.63-23.23-50.69-48.78-69.96-78.59c-8.34-12.91-14.82-26.71-20.05-41.13c-5.24-14.45-11.29-28.64-14.4-43.79
	c-4.41-21.42-0.1-41.34,10.55-60.07c2.97-5.23,6.54-10.13,9.97-15.08C42.35,14.37,49.25,9.53,57.9,7.5
	c7.07-1.66,14.24-2.91,21.37-4.31c6.1-1.2,10.52,1.12,13.5,6.48c4.65,8.36,9.24,16.76,14.06,25.03
	c6.64,11.41,13.47,22.71,20.21,34.06c0.11,0.18,0.24,0.34,0.35,0.52c5.66,9.02,5.58,13.45-1.78,21.12
	c-5.24,5.46-11.25,10.18-16.95,15.2c-3.98,3.51-8.17,6.8-11.98,10.49c-7.43,7.19-8.19,11.06-3.23,20.14
	c17.61,32.28,38.88,61.62,69.01,83.57c13.39,9.75,27.46,18.41,42.16,26.05c5.9,3.06,11.15,2.03,15.49-2.8
	c5.98-6.65,11.68-13.55,17.6-20.26c3.24-3.66,6.46-7.38,10.08-10.65c7.66-6.92,11.76-7,20.68-1.71
	c15.73,9.34,31.55,18.53,47.36,27.75c4.13,2.41,8.53,4.42,12.41,7.17c2.61,1.84,4.54,4.64,6.77,7.01c0,2.29,0,4.58,0,6.88
	c-1.45,6.77-2.76,13.58-4.39,20.31c-1.75,7.21-5.08,13.59-10.91,18.44c-13.94,11.61-29.47,20.03-47.39,23.64
	c-2.63,0.53-5.28,0.91-7.93,1.36C259.81,322.98,255.23,322.98,250.64,322.98z"/>
</svg>
